<mxfile host="app.diagrams.net" modified="2024-03-05T18:27:12.867Z" agent="Mozilla/5.0 (X11; Linux x86_64; rv:109.0) Gecko/20100101 Firefox/114.0" etag="Cabooi3Xe5UOmDUW5vas" version="24.0.1" type="github">
  <diagram name="Page-1" id="rN5x7KIfAJGTpKDITKL9">
    <mxGraphModel dx="1434" dy="795" grid="1" gridSize="10" guides="1" tooltips="1" connect="1" arrows="1" fold="1" page="1" pageScale="1" pageWidth="850" pageHeight="1100" math="0" shadow="0">
      <root>
        <mxCell id="0" />
        <mxCell id="1" parent="0" />
        <mxCell id="iQYJBfHF8Syut_5VW8lq-13" style="edgeStyle=orthogonalEdgeStyle;rounded=0;orthogonalLoop=1;jettySize=auto;html=1;entryX=0;entryY=0.5;entryDx=0;entryDy=0;" edge="1" parent="1" source="iQYJBfHF8Syut_5VW8lq-1" target="iQYJBfHF8Syut_5VW8lq-8">
          <mxGeometry relative="1" as="geometry" />
        </mxCell>
        <mxCell id="iQYJBfHF8Syut_5VW8lq-1" value="Seat:Distribuidor" style="html=1;whiteSpace=wrap;" vertex="1" parent="1">
          <mxGeometry x="150" y="110" width="110" height="50" as="geometry" />
        </mxCell>
        <mxCell id="iQYJBfHF8Syut_5VW8lq-2" value="Ford:Distribuidor" style="html=1;whiteSpace=wrap;" vertex="1" parent="1">
          <mxGeometry x="150" y="410" width="110" height="50" as="geometry" />
        </mxCell>
        <mxCell id="iQYJBfHF8Syut_5VW8lq-3" value="Patricio:Contrador" style="html=1;whiteSpace=wrap;" vertex="1" parent="1">
          <mxGeometry x="560" y="360" width="110" height="50" as="geometry" />
        </mxCell>
        <mxCell id="iQYJBfHF8Syut_5VW8lq-5" value="Antonio:Comprador" style="html=1;whiteSpace=wrap;" vertex="1" parent="1">
          <mxGeometry x="560" y="160" width="110" height="50" as="geometry" />
        </mxCell>
        <mxCell id="iQYJBfHF8Syut_5VW8lq-6" value="Celia:Compradora" style="html=1;whiteSpace=wrap;" vertex="1" parent="1">
          <mxGeometry x="560" y="260" width="110" height="50" as="geometry" />
        </mxCell>
        <mxCell id="iQYJBfHF8Syut_5VW8lq-15" style="edgeStyle=orthogonalEdgeStyle;rounded=0;orthogonalLoop=1;jettySize=auto;html=1;entryX=0.75;entryY=0;entryDx=0;entryDy=0;" edge="1" parent="1" source="iQYJBfHF8Syut_5VW8lq-7" target="iQYJBfHF8Syut_5VW8lq-2">
          <mxGeometry relative="1" as="geometry" />
        </mxCell>
        <mxCell id="iQYJBfHF8Syut_5VW8lq-17" style="edgeStyle=orthogonalEdgeStyle;rounded=0;orthogonalLoop=1;jettySize=auto;html=1;entryX=0;entryY=0.5;entryDx=0;entryDy=0;" edge="1" parent="1" source="iQYJBfHF8Syut_5VW8lq-7" target="iQYJBfHF8Syut_5VW8lq-6">
          <mxGeometry relative="1" as="geometry" />
        </mxCell>
        <mxCell id="iQYJBfHF8Syut_5VW8lq-7" value="Automovil:Focus" style="html=1;whiteSpace=wrap;" vertex="1" parent="1">
          <mxGeometry x="360" y="310" width="110" height="50" as="geometry" />
        </mxCell>
        <mxCell id="iQYJBfHF8Syut_5VW8lq-12" style="edgeStyle=orthogonalEdgeStyle;rounded=0;orthogonalLoop=1;jettySize=auto;html=1;entryX=0;entryY=0.25;entryDx=0;entryDy=0;" edge="1" parent="1" source="iQYJBfHF8Syut_5VW8lq-8" target="iQYJBfHF8Syut_5VW8lq-5">
          <mxGeometry relative="1" as="geometry" />
        </mxCell>
        <mxCell id="iQYJBfHF8Syut_5VW8lq-8" value="Automovil:Mii" style="html=1;whiteSpace=wrap;" vertex="1" parent="1">
          <mxGeometry x="360" y="110" width="110" height="50" as="geometry" />
        </mxCell>
        <mxCell id="iQYJBfHF8Syut_5VW8lq-11" style="edgeStyle=orthogonalEdgeStyle;rounded=0;orthogonalLoop=1;jettySize=auto;html=1;entryX=0;entryY=0.25;entryDx=0;entryDy=0;" edge="1" parent="1" source="iQYJBfHF8Syut_5VW8lq-9" target="iQYJBfHF8Syut_5VW8lq-5">
          <mxGeometry relative="1" as="geometry" />
        </mxCell>
        <mxCell id="iQYJBfHF8Syut_5VW8lq-14" style="edgeStyle=orthogonalEdgeStyle;rounded=0;orthogonalLoop=1;jettySize=auto;html=1;" edge="1" parent="1" source="iQYJBfHF8Syut_5VW8lq-9" target="iQYJBfHF8Syut_5VW8lq-2">
          <mxGeometry relative="1" as="geometry" />
        </mxCell>
        <mxCell id="iQYJBfHF8Syut_5VW8lq-9" value="Automovil:Fiesta" style="html=1;whiteSpace=wrap;" vertex="1" parent="1">
          <mxGeometry x="360" y="210" width="110" height="50" as="geometry" />
        </mxCell>
        <mxCell id="iQYJBfHF8Syut_5VW8lq-16" style="edgeStyle=orthogonalEdgeStyle;rounded=0;orthogonalLoop=1;jettySize=auto;html=1;entryX=1;entryY=0.5;entryDx=0;entryDy=0;" edge="1" parent="1" source="iQYJBfHF8Syut_5VW8lq-10" target="iQYJBfHF8Syut_5VW8lq-2">
          <mxGeometry relative="1" as="geometry" />
        </mxCell>
        <mxCell id="iQYJBfHF8Syut_5VW8lq-18" style="edgeStyle=orthogonalEdgeStyle;rounded=0;orthogonalLoop=1;jettySize=auto;html=1;entryX=0;entryY=0.5;entryDx=0;entryDy=0;" edge="1" parent="1" source="iQYJBfHF8Syut_5VW8lq-10" target="iQYJBfHF8Syut_5VW8lq-3">
          <mxGeometry relative="1" as="geometry" />
        </mxCell>
        <mxCell id="iQYJBfHF8Syut_5VW8lq-10" value="Automovil:Maverick" style="html=1;whiteSpace=wrap;" vertex="1" parent="1">
          <mxGeometry x="360" y="410" width="110" height="50" as="geometry" />
        </mxCell>
        <mxCell id="iQYJBfHF8Syut_5VW8lq-20" value="Distribuye" style="text;html=1;align=center;verticalAlign=middle;resizable=0;points=[];autosize=1;strokeColor=none;fillColor=none;" vertex="1" parent="1">
          <mxGeometry x="265" y="110" width="80" height="30" as="geometry" />
        </mxCell>
        <mxCell id="iQYJBfHF8Syut_5VW8lq-21" value="Distribuye" style="text;html=1;align=center;verticalAlign=middle;resizable=0;points=[];autosize=1;strokeColor=none;fillColor=none;" vertex="1" parent="1">
          <mxGeometry x="250" y="208" width="80" height="30" as="geometry" />
        </mxCell>
        <mxCell id="iQYJBfHF8Syut_5VW8lq-22" value="Distribuye" style="text;html=1;align=center;verticalAlign=middle;resizable=0;points=[];autosize=1;strokeColor=none;fillColor=none;" vertex="1" parent="1">
          <mxGeometry x="250" y="310" width="80" height="30" as="geometry" />
        </mxCell>
        <mxCell id="iQYJBfHF8Syut_5VW8lq-23" value="Distribuye" style="text;html=1;align=center;verticalAlign=middle;resizable=0;points=[];autosize=1;strokeColor=none;fillColor=none;" vertex="1" parent="1">
          <mxGeometry x="260" y="410" width="80" height="30" as="geometry" />
        </mxCell>
        <mxCell id="iQYJBfHF8Syut_5VW8lq-24" value="Compra" style="text;html=1;align=center;verticalAlign=middle;resizable=0;points=[];autosize=1;strokeColor=none;fillColor=none;" vertex="1" parent="1">
          <mxGeometry x="480" y="110" width="70" height="30" as="geometry" />
        </mxCell>
        <mxCell id="iQYJBfHF8Syut_5VW8lq-25" value="Compra" style="text;html=1;align=center;verticalAlign=middle;resizable=0;points=[];autosize=1;strokeColor=none;fillColor=none;" vertex="1" parent="1">
          <mxGeometry x="490" y="260" width="70" height="30" as="geometry" />
        </mxCell>
        <mxCell id="iQYJBfHF8Syut_5VW8lq-26" value="Compra" style="text;html=1;align=center;verticalAlign=middle;resizable=0;points=[];autosize=1;strokeColor=none;fillColor=none;" vertex="1" parent="1">
          <mxGeometry x="500" y="210" width="70" height="30" as="geometry" />
        </mxCell>
        <mxCell id="iQYJBfHF8Syut_5VW8lq-27" value="Compra" style="text;html=1;align=center;verticalAlign=middle;resizable=0;points=[];autosize=1;strokeColor=none;fillColor=none;" vertex="1" parent="1">
          <mxGeometry x="490" y="360" width="70" height="30" as="geometry" />
        </mxCell>
      </root>
    </mxGraphModel>
  </diagram>
</mxfile>
